
<svg width="32" height="32" viewBox="0 0 32 32" xmlns="http://www.w3.org/2000/svg"><g fill="none" fill-rule="evenodd"><g transform="translate(1 1)"><circle stroke-opacity=".39654099" stroke="#2A343E" stroke-width="2" fill-opacity=".72347713" fill="#2A343E" cx="15" cy="15" r="14.1666667"/><circle stroke="#FFF" cx="15" cy="15" r="14.5833333"/></g><path d="M18.7566201 11.4163211L14.2325763 16l4.5240438 4.5836789c.3212038.3254379.3201774.8489151-.0023002 1.1730909l-.1129278.1135225c-.3245811.3262905-.8522168.3276763-1.1785072.0030951a.82860465.82860465 0 0 1-.0030951-.0030951l-5.254912-5.2825862c-.3233762-.3250793-.3233762-.8503329 0-1.1754122l5.254912-5.28258623c.3245811-.3262905.8522168-.32767625 1.1785073-.00309509a.82857532.82857532 0 0 1 .003095.00309509l.1129278.1135225c.3224776.32417583.323504.84765303.0023002 1.17309093z" fill="#FFF" fill-rule="nonzero"/></g></svg>
